<mxfile host="app.diagrams.net" agent="Mozilla/5.0 (Windows NT 10.0; Win64; x64) AppleWebKit/537.36 (KHTML, like Gecko) Chrome/132.0.0.0 Safari/537.36" version="26.0.11">
  <diagram name="Page-1" id="EEytKLQ9o5RP3dy8__cd">
    <mxGraphModel dx="2211" dy="1137" grid="1" gridSize="10" guides="0" tooltips="1" connect="1" arrows="1" fold="1" page="1" pageScale="1" pageWidth="1920" pageHeight="1080" math="0" shadow="0">
      <root>
        <mxCell id="0" />
        <mxCell id="1" parent="0" />
        <mxCell id="uX3XRjYkTcWeSPGLSRdr-6" style="edgeStyle=orthogonalEdgeStyle;rounded=0;orthogonalLoop=1;jettySize=auto;html=1;entryX=0;entryY=0.5;entryDx=0;entryDy=0;strokeWidth=3;dashed=1;endSize=10;" edge="1" parent="1" source="uX3XRjYkTcWeSPGLSRdr-1" target="uX3XRjYkTcWeSPGLSRdr-2">
          <mxGeometry relative="1" as="geometry" />
        </mxCell>
        <mxCell id="uX3XRjYkTcWeSPGLSRdr-7" style="edgeStyle=orthogonalEdgeStyle;rounded=0;orthogonalLoop=1;jettySize=auto;html=1;entryX=0;entryY=0.5;entryDx=0;entryDy=0;strokeWidth=3;dashed=1;endSize=10;" edge="1" parent="1" source="uX3XRjYkTcWeSPGLSRdr-1" target="uX3XRjYkTcWeSPGLSRdr-3">
          <mxGeometry relative="1" as="geometry" />
        </mxCell>
        <mxCell id="uX3XRjYkTcWeSPGLSRdr-12" style="edgeStyle=orthogonalEdgeStyle;rounded=0;orthogonalLoop=1;jettySize=auto;html=1;startArrow=classic;startFill=1;endArrow=none;strokeWidth=3;dashed=1;endSize=10;startSize=10;" edge="1" parent="1" source="uX3XRjYkTcWeSPGLSRdr-1">
          <mxGeometry relative="1" as="geometry">
            <mxPoint x="70" y="540" as="targetPoint" />
          </mxGeometry>
        </mxCell>
        <mxCell id="uX3XRjYkTcWeSPGLSRdr-1" value="前期设计" style="rounded=1;whiteSpace=wrap;html=1;fontSize=36;fontFamily=Noto Sans;fontSource=https%3A%2F%2Ffonts.googleapis.com%2Fcss%3Ffamily%3DNoto%2BSans;fontStyle=1;fillColor=none;strokeWidth=3;" vertex="1" parent="1">
          <mxGeometry x="240" y="480" width="240" height="120" as="geometry" />
        </mxCell>
        <mxCell id="uX3XRjYkTcWeSPGLSRdr-8" style="edgeStyle=orthogonalEdgeStyle;rounded=0;orthogonalLoop=1;jettySize=auto;html=1;strokeWidth=3;dashed=1;endSize=10;" edge="1" parent="1" source="uX3XRjYkTcWeSPGLSRdr-2" target="uX3XRjYkTcWeSPGLSRdr-4">
          <mxGeometry relative="1" as="geometry" />
        </mxCell>
        <mxCell id="uX3XRjYkTcWeSPGLSRdr-2" value="资源制作" style="rounded=1;whiteSpace=wrap;html=1;fontSize=36;fontFamily=Noto Sans;fontSource=https%3A%2F%2Ffonts.googleapis.com%2Fcss%3Ffamily%3DNoto%2BSans;fontStyle=1;fillColor=none;strokeWidth=3;" vertex="1" parent="1">
          <mxGeometry x="640" y="360" width="240" height="120" as="geometry" />
        </mxCell>
        <mxCell id="uX3XRjYkTcWeSPGLSRdr-9" style="edgeStyle=orthogonalEdgeStyle;rounded=0;orthogonalLoop=1;jettySize=auto;html=1;entryX=0;entryY=0.5;entryDx=0;entryDy=0;strokeWidth=3;dashed=1;endSize=10;" edge="1" parent="1" source="uX3XRjYkTcWeSPGLSRdr-3" target="uX3XRjYkTcWeSPGLSRdr-4">
          <mxGeometry relative="1" as="geometry" />
        </mxCell>
        <mxCell id="uX3XRjYkTcWeSPGLSRdr-3" value="功能开发" style="rounded=1;whiteSpace=wrap;html=1;fontSize=36;fontFamily=Noto Sans;fontSource=https%3A%2F%2Ffonts.googleapis.com%2Fcss%3Ffamily%3DNoto%2BSans;fontStyle=1;fillColor=none;strokeWidth=3;" vertex="1" parent="1">
          <mxGeometry x="640" y="600" width="240" height="120" as="geometry" />
        </mxCell>
        <mxCell id="uX3XRjYkTcWeSPGLSRdr-10" style="edgeStyle=orthogonalEdgeStyle;rounded=0;orthogonalLoop=1;jettySize=auto;html=1;entryX=0;entryY=0.5;entryDx=0;entryDy=0;strokeWidth=3;dashed=1;endSize=10;" edge="1" parent="1" source="uX3XRjYkTcWeSPGLSRdr-4" target="uX3XRjYkTcWeSPGLSRdr-5">
          <mxGeometry relative="1" as="geometry" />
        </mxCell>
        <mxCell id="uX3XRjYkTcWeSPGLSRdr-4" value="数据整合" style="rounded=1;whiteSpace=wrap;html=1;fontSize=36;fontFamily=Noto Sans;fontSource=https%3A%2F%2Ffonts.googleapis.com%2Fcss%3Ffamily%3DNoto%2BSans;fontStyle=1;fillColor=none;strokeWidth=3;" vertex="1" parent="1">
          <mxGeometry x="1040" y="480" width="240" height="120" as="geometry" />
        </mxCell>
        <mxCell id="uX3XRjYkTcWeSPGLSRdr-11" style="edgeStyle=orthogonalEdgeStyle;rounded=0;orthogonalLoop=1;jettySize=auto;html=1;strokeWidth=3;dashed=1;endSize=10;" edge="1" parent="1" source="uX3XRjYkTcWeSPGLSRdr-5">
          <mxGeometry relative="1" as="geometry">
            <mxPoint x="1830" y="540" as="targetPoint" />
          </mxGeometry>
        </mxCell>
        <mxCell id="uX3XRjYkTcWeSPGLSRdr-5" value="测试调优" style="rounded=1;whiteSpace=wrap;html=1;fontSize=36;fontFamily=Noto Sans;fontSource=https%3A%2F%2Ffonts.googleapis.com%2Fcss%3Ffamily%3DNoto%2BSans;fontStyle=1;fillColor=none;strokeWidth=3;" vertex="1" parent="1">
          <mxGeometry x="1400" y="480" width="240" height="120" as="geometry" />
        </mxCell>
        <mxCell id="uX3XRjYkTcWeSPGLSRdr-13" value="" style="endArrow=classic;html=1;rounded=0;curved=1;endFill=1;strokeWidth=5;endSize=10;startSize=10;" edge="1" parent="1">
          <mxGeometry width="50" height="50" relative="1" as="geometry">
            <mxPoint x="120" y="520" as="sourcePoint" />
            <mxPoint x="1760" y="520" as="targetPoint" />
            <Array as="points">
              <mxPoint x="200" y="230" />
              <mxPoint x="1680" y="230" />
            </Array>
          </mxGeometry>
        </mxCell>
        <mxCell id="uX3XRjYkTcWeSPGLSRdr-14" value="" style="endArrow=none;html=1;rounded=0;curved=1;startArrow=classic;startFill=1;strokeWidth=5;endSize=10;startSize=10;" edge="1" parent="1">
          <mxGeometry width="50" height="50" relative="1" as="geometry">
            <mxPoint x="120" y="560" as="sourcePoint" />
            <mxPoint x="1760" y="560" as="targetPoint" />
            <Array as="points">
              <mxPoint x="200" y="850" />
              <mxPoint x="1680" y="850" />
            </Array>
          </mxGeometry>
        </mxCell>
        <mxCell id="uX3XRjYkTcWeSPGLSRdr-15" value="&lt;font&gt;&lt;span&gt;工具管线 / 数据结构&amp;nbsp;&lt;/span&gt;&lt;/font&gt;/ 流程规范" style="text;html=1;align=center;verticalAlign=middle;whiteSpace=wrap;rounded=0;fontFamily=Noto Sans;fontSource=https%3A%2F%2Ffonts.googleapis.com%2Fcss%3Ffamily%3DNoto%2BSans;fontSize=30;" vertex="1" parent="1">
          <mxGeometry x="699" y="796" width="530" height="30" as="geometry" />
        </mxCell>
      </root>
    </mxGraphModel>
  </diagram>
</mxfile>
